<svg id="Layer_1" data-name="Layer 1" xmlns="http://www.w3.org/2000/svg" viewBox="0 0 399 100.95"><title>logo</title><rect width="95" height="100" rx="10" ry="10" style="fill:#2C43F2"/><path d="M17.9,85.2c6.1-1.1,12.4-2.9,15.3-10.4a.32.32,0,0,0-.3-.3,15.68,15.68,0,0,1-7.1,1.7c-.3,0-.4-.1-.4-.4a15.4,15.4,0,0,1,.8-7.2c.1-.1-.1-.3-.3-.3-7.1,3.8-8.2,10.2-8.6,16.4A.74.74,0,0,0,17.9,85.2Z" style="fill:#fff"/><path d="M36.7,41.3C22.7,42.4,14,51,10.1,55.2c-.3.4,0,1,.6.7a36.87,36.87,0,0,1,18.4-.8.89.89,0,0,1,.7,1.1L28,63a.91.91,0,0,0,.6,1.1,17.13,17.13,0,0,1,5,2.9,14.23,14.23,0,0,1,3.5,4.7.87.87,0,0,0,1.1.4l6.5-2.6a1,1,0,0,1,1.3.6c.8,2.5,3.1,10.3,1.3,18.4a.46.46,0,0,0,.8.4c3.8-4.3,11.3-13.9,10.7-28a.71.71,0,0,1,.3-.6C78.6,43.3,81.5,23.6,81.8,13,71.4,14.5,52,19.7,37.4,41,37.1,41.1,37,41.3,36.7,41.3ZM61.2,36a7.22,7.22,0,1,1-10.2.6A7.17,7.17,0,0,1,61.2,36Z" style="fill:#fff"/><path d="M345,59h.51q1.33-2.12,2.7-4.2,2.83-4.28,5-7l16.24-20.46H397.4L372.28,58.06,399,99.67H370.42l-15.85-26-8.12,6.2V99.67H321.33V.2h25.12V39.33A135.08,135.08,0,0,1,345,59ZM119,95.07V72.57a75.2,75.2,0,0,0,15,5.79,56,56,0,0,0,14.32,2.08q5.1,0,7.73-1.6.27-.16.52-.35a6,6,0,0,0,2.62-5,5.88,5.88,0,0,0-.33-2,5.32,5.32,0,0,0-.72-1.35,8,8,0,0,0-.95-1.06,12.87,12.87,0,0,0-1.17-1q-.62-.46-1.27-.87t-1.15-.66q-3.08-1.66-11.29-5.35-2.67-1.21-5.27-2.57a48.23,48.23,0,0,1-8.13-5.21l-.32-.27a26,26,0,0,1-4.93-5.54,23.16,23.16,0,0,1-1.84-3.41,25.36,25.36,0,0,1-1.72-5.88,35.61,35.61,0,0,1-.48-5.67q0-.2,0-.4A28.46,28.46,0,0,1,121,23.35,23,23,0,0,1,129,12.09a32.19,32.19,0,0,1,10.73-5.3,49,49,0,0,1,10-1.74q2.56-.19,5.12-.19a68.32,68.32,0,0,1,20.69,3.32,85,85,0,0,1,8.91,3.39l-7.73,19.5a85.29,85.29,0,0,0-8.4-3.36,45.29,45.29,0,0,0-14.23-2.65,22.25,22.25,0,0,0-2.52.13,10,10,0,0,0-4.19,1.28q-.23.14-.44.31a6.3,6.3,0,0,0-1.36,1.4,5,5,0,0,0-.88,2.88,5.28,5.28,0,0,0,1.11,3.21,8.39,8.39,0,0,0,1.41,1.45l.32.26q2.84,2.17,15.44,7.93,3.34,1.49,6.52,3.3a35.27,35.27,0,0,1,9.65,7.6q.31.38.61.77a22.78,22.78,0,0,1,4.09,9.31,32,32,0,0,1,.61,6.38,29.16,29.16,0,0,1-1.56,9.64,26.39,26.39,0,0,1-2.86,5.8,27.48,27.48,0,0,1-8.81,8.43,35,35,0,0,1-3.91,2.06,41.19,41.19,0,0,1-10.18,3,56.74,56.74,0,0,1-9.32.73q-3.29,0-6.58-.18-3.13-.19-5.82-.56-1.64-.23-3.27-.56a52.77,52.77,0,0,1-7.7-2.24Q121.69,96.36,119,95.07Zm185.32,4.6H287l-4.79-9.59h-.51a32.74,32.74,0,0,1-7.51,7.06,19.73,19.73,0,0,1-2.78,1.51,24.29,24.29,0,0,1-4.76,1.49,42.85,42.85,0,0,1-8.79.81,27.49,27.49,0,0,1-6.79-.79,19.16,19.16,0,0,1-9.32-5.34,20.1,20.1,0,0,1-4.82-8.69,30.49,30.49,0,0,1-1-6.82q0-.87,0-1.74a26.24,26.24,0,0,1,.87-7,18,18,0,0,1,7.19-10.27,29.29,29.29,0,0,1,7.4-3.66,47.49,47.49,0,0,1,8.05-1.93,73.12,73.12,0,0,1,7.89-.77l12.08-.38v-1a13.13,13.13,0,0,0-.42-3.49A6.8,6.8,0,0,0,273.83,44a12.75,12.75,0,0,0-3.32-.4,31,31,0,0,0-5.88.62,66.75,66.75,0,0,0-13.19,4.29l-1.06.46-7.22-16.49Q255.8,26,275.11,26a45.21,45.21,0,0,1,8.47.74,29.37,29.37,0,0,1,8.66,3,23.29,23.29,0,0,1,4.44,3.15,22.58,22.58,0,0,1,7,12.68,33.6,33.6,0,0,1,.62,6.63ZM222.43.2V99.67h-25V.2Zm-1,0V99.67M220.43.2V99.67M219.43.2V99.67m1-99.47V99.67m1-99.47V99.67m1-99.47V99.67m57-26.72V67.33l-5.75.26a26.15,26.15,0,0,0-4.46.51q-7.87,1.67-7.87,8.56h0a9,9,0,0,0,.36,2.67q1.24,4,6.73,4a11.9,11.9,0,0,0,4.57-.86,11.18,11.18,0,0,0,3.19-2,9.44,9.44,0,0,0,3.22-6.91Q279.46,73.24,279.46,73Z" style="fill:#2C43F2"/></svg>
